PathFileType	4	(X/Y/Z)	2014001\dynamic\2014001_C3_03.trc
DataRate	CameraRate	NumFrames	NumMarkers	Units	OrigDataRate	OrigDataStartFrame	OrigNumFrames
100.000000	100.000000	4	52	mm	100.000000	114	183
Frame#	Time	L_IAS			L_IPS			R_IPS			R_IAS			L_FTC			L_FLE			L_FME			L_FAX			L_TTC			L_FAL			L_TAM			L_FCC			L_FM1			L_FM2			L_FM5			R_FTC			R_FLE			R_FME			R_FAX			R_TTC			R_FAL			R_TAM			R_FCC			R_FM1			R_FM2			R_FM5			CV7			TV10			SXS			SJN			L_SIA			L_SRS			L_SAA			L_SAE			L_HLE			L_HME			L_UOA			L_RSP			L_UHE			L_HM2			L_HM5			R_SIA			R_SRS			R_SAA			R_SAE			R_HLE			R_HME			R_UOA			R_RSP			R_UHE			R_HM2			R_HM5			
		X1	Y1	Z1	X2	Y2	Z2	X3	Y3	Z3	X4	Y4	Z4	X5	Y5	Z5	X6	Y6	Z6	X7	Y7	Z7	X8	Y8	Z8	X9	Y9	Z9	X10	Y10	Z10	X11	Y11	Z11	X12	Y12	Z12	X13	Y13	Z13	X14	Y14	Z14	X15	Y15	Z15	X16	Y16	Z16	X17	Y17	Z17	X18	Y18	Z18	X19	Y19	Z19	X20	Y20	Z20	X21	Y21	Z21	X22	Y22	Z22	X23	Y23	Z23	X24	Y24	Z24	X25	Y25	Z25	X26	Y26	Z26	X27	Y27	Z27	X28	Y28	Z28	X29	Y29	Z29	X30	Y30	Z30	X31	Y31	Z31	X32	Y32	Z32	X33	Y33	Z33	X34	Y34	Z34	X35	Y35	Z35	X36	Y36	Z36	X37	Y37	Z37	X38	Y38	Z38	X39	Y39	Z39	X40	Y40	Z40	X41	Y41	Z41	X42	Y42	Z42	X43	Y43	Z43	X44	Y44	Z44	X45	Y45	Z45	X46	Y46	Z46	X47	Y47	Z47	X48	Y48	Z48	X49	Y49	Z49	X50	Y50	Z50	X51	Y51	Z51	X52	Y52	Z52	

115	1.14	419.6703186035159	860.479125976563	1028.1884765625	339.895721435547	908.703979492188	854.6378784179692	250.0385742187501	904.2316894531255	854.047729492188	181.6358184814454	874.3125610351567	1032.964599609375	472.5949401855471	783.191528320313	936.934448242188	424.0917663574221	437.608337402344	859.7592163085942	312.5719604492189	425.804138183594	885.2509155273442	425.1345520019534	381.7460327148439	827.513305664063	379.8201599121095	350.5517883300782	883.5268554687505	368.3275146484376	70.91190338134768	739.8474121093752	282.3739318847657	81.66448211669925	765.821716308594	321.6146240234376	38.18130493164064	693.3841552734377	300.8315734863282	27.87691307067873	873.4296875000005	363.3294982910157	35.43994140625001	881.6682739257817	407.8058776855471	22.96584510803223	824.9213867187505	117.0676193237305	777.0534057617192	946.6818237304692	130.0520477294922	448.136901855469	1085.714965820313	248.6154937744142	436.5625000000002	1112.8935546875	125.7573013305665	384.3505554199221	1087.64306640625	167.5441589355469	395.746276855469	1157.308349609375	154.5123138427735	78.98523712158206	1172.9892578125	231.9309692382814	109.0086898803712	1213.94921875	215.4426269531251	24.65685653686525	1160.20166015625	197.2834625244142	95.18378448486331	1329.607666015625	141.3225402832032	101.5375518798829	1315.27783203125	110.3352203369141	64.10449218750003	1271.302124023438	292.0071411132814	1373.253173828125	905.932983398438	308.3277282714845	1143.183471679688	839.2830200195317	295.5176696777345	1142.940795898438	1073.88330078125	286.6672973632814	1305.8701171875	1033.16650390625	408.0755920410159	1188.721557617188	845.8016967773442	387.8262023925784	1315.920532226563	870.4310913085942	489.268005371094	1321.798095703125	956.5808105468755	464.2760314941409	1331.08984375	993.2954711914067	565.9429931640627	1060.91259765625	1045.384887695313	502.682556152344	1011.415466308594	1015.96923828125	552.6234130859377	1010.259643554688	1024.92333984375	470.3135986328127	915.8015136718755	1228.9248046875	543.2933349609377	886.8947753906255	1215.635864257813	457.7338867187502	875.8493041992192	1303.476928710938	534.3582153320315	822.6469726562505	1260.509887695313	204.3674926757814	1181.193237304688	819.818725585938	216.1473846435548	1302.81640625	855.3107910156255	106.1139678955079	1295.866577148438	915.3656616210942	108.5755615234376	1298.880493164063	966.3325805664067	58.23979949951175	1008.73291015625	863.3775024414067	138.4838104248047	995.5464477539067	852.8362426757817	94.61318969726565	992.902221679688	837.6098632812505	62.81624221801761	784.543579101563	912.4369506835942	15.34217357635499	797.4461059570317	847.1846313476567	40.83560180664064	691.0166625976565	912.6881713867192	15.88419818878175	723.2486572265627	819.1908569335942	
116	1.15	419.1907958984377	859.252319335938	1037.5927734375	338.3512573242189	907.1105346679692	864.380004882813	248.5390930175782	902.298950195313	864.147827148438	181.1576080322266	872.1376342773442	1043.34716796875	472.367370605469	782.5231933593755	945.7414550781255	423.9512329101565	437.6503601074221	865.2723999023442	312.6472778320314	425.2380981445315	891.3141479492192	425.0260925292971	382.1652221679689	832.4039916992192	379.9903869628907	350.1573181152345	888.075805664063	368.5889892578126	72.29385375976565	740.5437011718752	282.6609191894532	82.63806915283206	766.5328369140627	321.8858947753907	40.17781066894533	693.7173461914065	301.0399780273439	27.98301506042482	873.4319458007817	363.4930114746095	35.34103393554689	881.7877807617192	407.920104980469	22.96978950500489	825.0090942382817	116.4628067016602	774.630493164063	957.1157226562505	130.8125305175782	445.6182861328127	1095.174072265625	249.8294067382814	434.4004821777346	1121.485107421875	126.6566390991212	381.9094848632814	1099.033447265625	168.7755126953126	395.4014282226565	1168.211303710938	155.6853485107422	79.18082427978518	1196.411743164063	233.1583709716798	111.0559692382813	1235.637573242188	216.6042785644532	24.36305618286134	1185.408569335938	199.7051086425782	101.5376892089844	1352.4951171875	143.6070098876954	106.8641738891602	1338.796997070313	112.4100418090821	67.50566101074222	1296.3349609375	290.8847961425782	1371.639038085938	916.741088867188	307.0807189941407	1141.904663085938	849.5205078125005	294.3718872070314	1140.963623046875	1084.217041015625	285.4143676757814	1303.942260742188	1043.94677734375	406.9331054687502	1187.380249023438	856.428344726563	386.7071533203127	1314.577880859375	881.3256835937505	487.9768371582034	1320.224487304688	967.6130981445317	462.8841857910159	1329.40234375	1004.275573730469	564.8984985351565	1059.509643554688	1056.04052734375	501.7592468261721	1009.8759765625	1026.549072265625	551.6408691406252	1008.711364746094	1035.687255859375	468.6226196289065	915.2561645507817	1239.77587890625	541.5703735351565	886.1520996093755	1226.870727539063	455.8107604980471	875.9281616210942	1314.576293945313	532.3770141601565	822.2011108398442	1272.12109375	203.5089111328126	1179.718872070313	830.1408081054692	215.1793670654298	1301.390991210938	865.859252929688	105.0678710937501	1294.22412109375	925.6072387695317	107.3523864746094	1297.1259765625	976.626831054688	57.58441162109378	1007.321899414063	872.3626098632817	137.8975982666016	994.2131958007817	862.1776733398442	94.11402893066409	991.615844726563	846.7222290039067	61.88118743896487	782.9141235351567	920.4904785156255	14.78333950042725	796.1455078125005	855.030883789063	40.119197845459	689.3189697265627	920.0261230468755	15.48746776580811	722.0953369140627	826.6448364257817	
117	1.16	418.6490478515627	858.0558471679692	1047.1796875	336.6871032714845	905.497924804688	874.3092651367192	246.9316406250001	900.347534179688	874.4130859375005	180.5936126708985	870.0404663085942	1053.915283203125	472.0415954589846	781.8651733398442	954.7507324218755	423.7745361328127	437.6968383789065	871.1880493164067	312.6954956054689	424.6915283203127	897.7730102539067	424.8999633789065	382.5938720703126	837.698364257813	380.1357727050782	349.7518005371095	892.9821166992192	368.9298400878907	73.83462524414065	741.327575683594	283.0163879394532	83.75713348388675	767.278503417969	322.2659301757814	42.39303207397462	694.0691528320315	301.291961669922	28.11242485046388	873.4707031250005	363.695037841797	35.25646972656251	881.961303710938	408.0649719238284	22.98151588439942	825.147583007813	115.7457656860352	772.2714843750005	967.8543090820317	131.5005645751954	443.3191528320315	1105.12841796875	250.9401092529298	432.4902343750002	1130.601196289063	127.5369110107422	379.6860656738282	1110.486450195313	169.9488983154297	394.9129028320315	1179.254760742188	157.1175231933594	79.36469268798831	1217.329223632813	234.5971679687501	112.7322463989258	1255.122436523438	218.0807952880861	24.2690944671631	1207.680419921875	202.1854095458986	106.6132812500001	1372.867309570313	145.9529876708985	111.0375213623047	1359.763427734375	114.6768264770508	70.1147384643555	1318.560546875	289.6193847656251	1370.032104492188	927.6282348632817	305.6863098144532	1140.607543945313	859.8812866210942	293.1505432128907	1139.007202148438	1094.64990234375	284.0741271972657	1302.022705078125	1054.817504882813	405.6182250976565	1186.03173828125	867.1125488281255	385.427185058594	1313.240112304688	892.2297973632817	486.5584716796877	1318.630493164063	978.6163940429692	461.3996582031252	1327.698974609375	1015.249572753907	563.760192871094	1058.026000976563	1066.454345703125	500.7161254882815	1008.280090332032	1036.88525390625	550.5564575195315	1007.123352050782	1046.130981445313	466.9458312988284	914.2503051757817	1250.19384765625	539.8977050781252	885.050903320313	1237.625854492188	453.9100036621096	875.3429565429692	1325.126831054688	530.5235595703127	821.314819335938	1283.136108398438	202.4618530273439	1178.239135742188	840.5971679687505	214.0352172851564	1299.972290039063	876.5317993164067	103.8699264526368	1292.57080078125	936.0354614257817	106.0148544311524	1295.357421875	987.0988769531255	56.81693267822268	1005.844482421875	881.6710815429692	137.1978454589844	992.8239135742192	871.7971801757817	93.48420715332034	990.2600708007817	856.1399536132817	60.93371582031253	781.2565917968755	928.983276367188	14.18654918670655	794.751831054688	863.3281250000005	39.40028381347658	687.5917968750002	927.8908081054692	15.08358955383301	720.8291625976565	834.5990600585942	
118	1.17	418.0411682128909	856.8866577148442	1056.976684570313	334.918670654297	903.8905639648442	884.4492797851567	245.231170654297	898.4204711914067	884.8624877929692	179.9386138916016	868.069702148438	1064.68701171875	471.5972900390627	781.2080688476567	963.9865112304692	423.5626525878909	437.7449340820315	877.5239257812505	312.6987609863282	424.1668090820315	904.6119995117192	424.7560729980471	383.0291442871095	843.4064331054692	380.2487182617189	349.3300781250001	898.252563476563	369.3537597656251	75.54963684082034	742.2014770507815	283.4449462890626	85.04449462890628	768.0700073242192	322.7558898925782	44.84243774414064	694.444519042969	301.5874938964845	28.25924491882326	873.5524291992192	363.9385681152345	35.19061660766603	882.1992187500005	408.234313964844	22.99471092224122	825.337036132813	114.9128723144532	770.038452148438	978.919067382813	132.1174621582032	441.2989807128909	1115.668579101563	251.9178161621095	430.8997497558596	1140.324951171875	128.3822937011719	377.7066345214845	1122.073974609375	171.0764923095704	394.2812805175784	1190.514526367188	158.7601776123047	79.37029266357425	1235.636108398438	236.2262268066407	113.843116760254	1272.344970703125	219.8101806640626	24.19890213012697	1226.846801757813	204.6879730224611	110.1010742187501	1390.692138671875	148.3221282958985	113.776222229004	1378.121948242188	117.0858459472657	71.68300628662112	1337.871215820313	288.2078552246095	1368.449951171875	938.592407226563	304.1474609375001	1139.301879882813	870.380249023438	291.8506164550782	1137.095825195313	1105.191528320313	282.6434936523439	1300.1357421875	1065.774658203125	404.1270751953127	1184.69189453125	877.8442382812505	383.9849853515626	1311.9208984375	903.147827148438	485.0159606933596	1317.028930664063	989.5896606445317	459.8269042968752	1325.994262695313	1026.21875	562.5359497070315	1056.469848632813	1076.618041992188	499.5581665039065	1006.639831542969	1046.973510742188	549.377136230469	1005.505737304688	1056.242797851563	465.2959594726565	912.795288085938	1260.18310546875	538.2866210937502	883.596313476563	1247.898315429688	452.0436706542971	874.0985717773442	1335.131958007813	528.8032226562502	819.9861450195317	1293.549682617188	201.2253875732423	1176.771606445313	851.1862182617192	212.7104949951173	1298.576049804688	887.3297729492192	102.5159378051758	1290.918823242188	946.6564941406255	104.5606002807618	1293.587280273438	997.755004882813	55.93236160278323	1004.309753417969	891.3098754882817	136.3766784667969	991.390502929688	881.6941528320317	92.71517181396487	988.8462524414067	865.866088867188	59.99256134033206	779.577514648438	937.9096069335942	13.54559326171876	793.2719726562505	872.088256835938	38.67696380615236	685.8482666015627	936.296264648438	14.65638446807862	719.4561157226565	843.0681152343755	
